<?xml version="1.0" encoding="utf-8"?>
<!-- Generator: Adobe Illustrator 20.1.0, SVG Export Plug-In . SVG Version: 6.00 Build 0)  -->
<svg version="1.1" id="Layer_1" xmlns="http://www.w3.org/2000/svg" xmlns:xlink="http://www.w3.org/1999/xlink" x="0px" y="0px"
	 viewBox="0 0 482.9 137.4" style="enable-background:new 0 0 482.9 137.4;" xml:space="preserve">
<style type="text/css">
	.st0{fill:#254395;stroke:#254395;stroke-width:7.1479;stroke-miterlimit:10;}
</style>
<g>
	<path class="st0" d="M7.1,13.1c7.2-1.2,16.6-2.2,28.7-2.2c14.8,0,25.6,3.4,32.4,9.6c6.3,5.5,10.1,13.9,10.1,24.2
		c0,10.5-3.1,18.7-8.9,24.7c-7.9,8.4-20.8,12.7-35.3,12.7c-4.5,0-8.6-0.2-12-1v46.3H7.1V13.1z M22,68.9c3.3,0.9,7.4,1.2,12.4,1.2
		c18,0,29-8.7,29-24.7c0-15.3-10.8-22.6-27.3-22.6c-6.5,0-11.5,0.5-14.1,1.2V68.9z"/>
	<path class="st0" d="M158.3,73.2h-45v41.7h50.1v12.5h-65V11.7h62.4v12.5h-47.5v36.5h45V73.2z"/>
	<path class="st0" d="M182.8,11.7h14.9v103.1h49.4v12.5h-64.3V11.7z"/>
	<path class="st0" d="M278.7,11.7v115.6h-14.9V11.7H278.7z"/>
	<path class="st0" d="M323.5,91l-12,36.4H296l39.3-115.6h18l39.5,115.6h-16L364.5,91H323.5z M361.4,79.3L350,46.1
		c-2.6-7.5-4.3-14.4-6-21.1h-0.3c-1.7,6.9-3.6,13.9-5.8,20.9l-11.3,33.5H361.4z"/>
	<path class="st0" d="M407.7,109.2c6.7,4.1,16.5,7.6,26.8,7.6c15.3,0,24.2-8.1,24.2-19.7c0-10.8-6.2-17-21.8-23
		c-18.9-6.7-30.5-16.5-30.5-32.8c0-18,14.9-31.4,37.4-31.4c11.8,0,20.4,2.7,25.6,5.7l-4.1,12.2c-3.8-2.1-11.5-5.5-22-5.5
		c-15.8,0-21.8,9.4-21.8,17.3c0,10.8,7,16.1,23,22.3c19.6,7.5,29.5,17,29.5,34c0,17.8-13.2,33.3-40.5,33.3
		c-11.2,0-23.3-3.3-29.5-7.4L407.7,109.2z"/>
</g>
</svg>
